<svg width="18" height="18" viewBox="0 0 18 18" fill="none" xmlns="http://www.w3.org/2000/svg">
<g clip-path="url(#clip0_31_17)">
<path d="M9.79424 0.330566C9.35479 -0.108887 8.64111 -0.108887 8.20166 0.330566L5.95166 2.58057C5.62822 2.904 5.5333 3.38564 5.70908 3.80752C5.88486 4.22939 6.29268 4.50361 6.74971 4.50361H7.87471V7.87861H4.49971V6.75361C4.49971 6.3001 4.22549 5.88877 3.80361 5.71299C3.38174 5.53721 2.9001 5.63564 2.57666 5.95557L0.32666 8.20557C-0.112793 8.64502 -0.112793 9.35869 0.32666 9.79815L2.57666 12.0481C2.9001 12.3716 3.38174 12.4665 3.80361 12.2907C4.22549 12.1149 4.49971 11.7071 4.49971 11.2501V10.1251H7.87471V13.5001H6.74971C6.29619 13.5001 5.88486 13.7743 5.70908 14.1962C5.5333 14.6181 5.63174 15.0997 5.95166 15.4231L8.20166 17.6731C8.64111 18.1126 9.35479 18.1126 9.79424 17.6731L12.0442 15.4231C12.3677 15.0997 12.4626 14.6181 12.2868 14.1962C12.111 13.7743 11.7032 13.5001 11.2462 13.5001H10.1212V10.1251H13.4962V11.2501C13.4962 11.7036 13.7704 12.1149 14.1923 12.2907C14.6142 12.4665 15.0958 12.3681 15.4192 12.0481L17.6692 9.79815C18.1087 9.35869 18.1087 8.64502 17.6692 8.20557L15.4192 5.95557C15.0958 5.63213 14.6142 5.53721 14.1923 5.71299C13.7704 5.88877 13.4962 6.29658 13.4962 6.75361V7.87861H10.1212V4.50361H11.2462C11.6997 4.50361 12.111 4.22939 12.2868 3.80752C12.4626 3.38564 12.3642 2.904 12.0442 2.58057L9.79424 0.330566Z" fill="#A6A6A6"/>
</g>
<defs>
<clipPath id="clip0_31_17">
<rect width="18" height="18" fill="white"/>
</clipPath>
</defs>
</svg>
