<svg width="17" height="18" viewBox="0 0 17 18" fill="none" xmlns="http://www.w3.org/2000/svg">
<g clip-path="url(#clip0_31_14)">
<path d="M6.12935 1.81406L5.44631 2.8125H10.659L9.97592 1.81406C9.92199 1.73672 9.83212 1.6875 9.73506 1.6875H6.36661C6.26955 1.6875 6.17968 1.7332 6.12575 1.81406H6.12935ZM11.4139 0.878906L12.7332 2.8125H13.2293H14.9549H15.2425C15.7206 2.8125 16.1053 3.18867 16.1053 3.65625C16.1053 4.12383 15.7206 4.5 15.2425 4.5H14.9549V15.1875C14.9549 16.7414 13.6679 18 12.0789 18H4.02632C2.43736 18 1.15038 16.7414 1.15038 15.1875V4.5H0.862782C0.384657 4.5 0 4.12383 0 3.65625C0 3.18867 0.384657 2.8125 0.862782 2.8125H1.15038H2.87594H3.37204L4.69138 0.875391C5.06525 0.330469 5.69436 0 6.36661 0H9.73506C10.4073 0 11.0364 0.330469 11.4103 0.875391L11.4139 0.878906ZM2.87594 4.5V15.1875C2.87594 15.8098 3.39001 16.3125 4.02632 16.3125H12.0789C12.7152 16.3125 13.2293 15.8098 13.2293 15.1875V4.5H2.87594ZM5.75188 6.75V14.0625C5.75188 14.3719 5.49305 14.625 5.17669 14.625C4.86034 14.625 4.6015 14.3719 4.6015 14.0625V6.75C4.6015 6.44063 4.86034 6.1875 5.17669 6.1875C5.49305 6.1875 5.75188 6.44063 5.75188 6.75ZM8.62782 6.75V14.0625C8.62782 14.3719 8.36899 14.625 8.05263 14.625C7.73628 14.625 7.47744 14.3719 7.47744 14.0625V6.75C7.47744 6.44063 7.73628 6.1875 8.05263 6.1875C8.36899 6.1875 8.62782 6.44063 8.62782 6.75ZM11.5038 6.75V14.0625C11.5038 14.3719 11.2449 14.625 10.9286 14.625C10.6122 14.625 10.3534 14.3719 10.3534 14.0625V6.75C10.3534 6.44063 10.6122 6.1875 10.9286 6.1875C11.2449 6.1875 11.5038 6.44063 11.5038 6.75Z" fill="#EF3826"/>
</g>
<defs>
<clipPath id="clip0_31_14">
<rect width="16.1053" height="18" fill="white"/>
</clipPath>
</defs>
</svg>
